<?xml version="1.0" encoding="utf-8"?>
<!-- Generator: Adobe Illustrator 26.0.2, SVG Export Plug-In . SVG Version: 6.00 Build 0)  -->
<svg version="1.1" xmlns="http://www.w3.org/2000/svg" xmlns:xlink="http://www.w3.org/1999/xlink" x="0px" y="0px" width="32px"
	 height="32px" viewBox="0 0 32 32" enable-background="new 0 0 32 32" xml:space="preserve">
<g id="Layer_1">
	
		<path id="Outline_00000101098255525697691710000006285982250903384984_" opacity="0.3" fill="#D3D3D3" enable-background="new    " d="
		M29.197,0H2.803C1.255,0,0,1.255,0,2.803v26.395C0,30.745,1.255,32,2.803,32h26.395C30.745,32,32,30.745,32,29.197V2.803
		C32,1.255,30.745,0,29.197,0z"/>
	
		<linearGradient id="Panel_00000057109384370389768200000015656393180244853384_" gradientUnits="userSpaceOnUse" x1="5.3974" y1="28.6026" x2="26.6106" y2="7.3894" gradientTransform="matrix(1 0 0 -1 0 34)">
		<stop  offset="0" style="stop-color:#F2F1F2"/>
		<stop  offset="1" style="stop-color:#989898"/>
	</linearGradient>
	<path id="Panel" fill="url(#Panel_00000057109384370389768200000015656393180244853384_)" d="M29.002,1H2.998
		C1.895,1,1,1.895,1,2.998v26.004C1,30.105,1.895,31,2.998,31h26.004C30.105,31,31,30.105,31,29.002V2.998
		C31,1.895,30.105,1,29.002,1z"/>
	<g id="Character">
		<path fill="#0C1A36" d="M8.068,24.616c0,0-0.411,0.963,0.647,1.326c0.395,0.237,0,0.411,0,0.411s-1.232,0.032-1.5-0.111
			c-0.268-0.142-1.232-1.626-1.232-1.626s-0.111-0.237,0.111-0.458C6.316,23.937,7.247,23.1,7.247,23.1s-0.253-0.332,0-0.6
			s0.9-0.632,0.9-0.632s0.347-0.079,0.474-0.726c0.126-0.647,1.437-5.037,1.437-5.037s0.016-2.779,0.316-3.3
			c0.221-0.379,0.253-3.411,0.253-3.411s0.489-2.021,1.879-2.021c0.248,0,0.474,0,0.474,0l0.023-1.529
			c0.004-0.267,0.085-0.53,0.253-0.738c0.265-0.328,0.773-0.733,1.666-0.733c1.5,0,2.1,1.026,2.1,1.5
			c0.089,0.312,0.332,0.395,0.332,0.395s0.063,0.111-0.126,0.111s-0.584,0.253-0.584,0.253s-0.268,0.458-0.016,0.979
			c0.679,0.442,1.105-0.363,1.105-0.363s0.016-0.126,0.205-0.126s0.947,0,0.947,0V6.916c0,0-0.018-0.157,0.117-0.157
			c0.143,0,0.374,0,0.374,0s0.138-0.018,0.138,0.147s0,0.339,0,0.339h1.11v0.248h1.254c0,0-0.012-0.624,0.505-0.624
			c0,0.03,0,0.755,0,0.755h1.129V7.131h0.351v0.618h1.118V7.133c0,0,0.262-0.04,0.262,0.254s0,0.794,0,0.794h0.834v0.513h-3.13
			c0,0-0.103,0.798-0.945,0.798c0,0-0.022,1.288,0.923,2.168l-0.559,0.499c0,0-1.011-0.844-1.011-2.283l-0.226,0.006
			c0,0,0.006,0.612-0.493,0.612S19.62,10.5,19.62,10.5s-0.823,1.233-2.089,1.233C16.273,11.755,16,11.752,16,11.752v0.152
			c0,0-0.066,0.41-0.369,0.446v0.633c0,0-0.045,0.687-0.49,0.687v1.195c0,0,1.712,0.633,2.639,2.452c0,0,0.366,0.66-0.205,0.999
			c0,0,2.737,2.283,2.176,5.368c-0.143,0.419-0.437,0.624-0.437,0.624s-0.143,0.276,0.062,0.776
			c0.129,0.361,1.641,1.273,1.641,1.273s0.392,0.207,0.348,0.751c-0.035,0.514-0.951,0.555-0.951,0.555s-1.189,0.105-2.384-1.179
			c0,0-0.089-0.116-0.089-1.917c0,0-1.353-0.601-1.353-3.455c0,0-3.197-3.138-3.268-3.375c0,0-1.8,3.292-2.203,4.642
			s-2.108,2.013-2.108,2.013S8.313,24.628,8.068,24.616z"/>
	</g>
</g>
</svg>
